<svg width="40" height="40" viewBox="0 0 40 40" fill="none" xmlns="http://www.w3.org/2000/svg">
<path d="M38.3333 16.6667C38.3333 15.7826 37.9821 14.9348 37.357 14.3097C36.7319 13.6845 35.884 13.3334 35 13.3334H24.4666L26.0666 5.71669C26.1 5.55002 26.1166 5.36669 26.1166 5.18335C26.1166 4.50002 25.8333 3.86669 25.3833 3.41669L23.6166 1.66669L12.65 12.6334C12.0333 13.25 11.6666 14.0834 11.6666 15V31.6667C11.6666 32.5507 12.0178 33.3986 12.6429 34.0237C13.2681 34.6488 14.1159 35 15 35H30C31.3833 35 32.5666 34.1667 33.0666 32.9667L38.1 21.2167C38.25 20.8334 38.3333 20.4334 38.3333 20V16.6667ZM1.66663 35H8.33329V15H1.66663V35Z" fill="white"/>
</svg>
