<svg width="40" height="40" viewBox="0 0 40 40" fill="none" xmlns="http://www.w3.org/2000/svg">
<path d="M4.99996 25H1.66663V5.00002C1.66663 4.11597 2.01782 3.26812 2.64294 2.643C3.26806 2.01788 4.1159 1.66669 4.99996 1.66669H31.6666V5.00002H4.99996V25ZM20 38.3334C19.5579 38.3334 19.134 38.1578 18.8214 37.8452C18.5089 37.5326 18.3333 37.1087 18.3333 36.6667V31.6667H11.6666C10.7826 31.6667 9.93472 31.3155 9.3096 30.6904C8.68448 30.0653 8.33329 29.2174 8.33329 28.3334V11.6667C8.33329 10.7826 8.68448 9.93479 9.3096 9.30966C9.93472 8.68454 10.7826 8.33335 11.6666 8.33335H35C35.884 8.33335 36.7319 8.68454 37.357 9.30966C37.9821 9.93479 38.3333 10.7826 38.3333 11.6667V28.3334C38.3333 29.2174 37.9821 30.0653 37.357 30.6904C36.7319 31.3155 35.884 31.6667 35 31.6667H28.1666L22 37.85C21.6666 38.15 21.2666 38.3334 20.8333 38.3334H20ZM15 15V18.3334H31.6666V15H15ZM15 21.6667V25H28.3333V21.6667H15Z" fill="white"/>
</svg>
